<svg xmlns="http://www.w3.org/2000/svg" viewBox="0 0 512 512">
  <defs>
    <linearGradient id="grad" x1="0%" y1="0%" x2="100%" y2="100%">
      <stop offset="0%" stop-color="#6c63ff"/>
      <stop offset="100%" stop-color="#ff6584"/>
    </linearGradient>
    <filter id="shadow" x="-10%" y="-10%" width="120%" height="120%">
      <feDropShadow dx="0" dy="8" stdDeviation="12" flood-color="#000000" flood-opacity="0.3"/>
    </filter>
  </defs>

  <!-- Dark container matching site bg -->
  <rect width="512" height="512" rx="128" fill="#16161f"/>
  
  <!-- Premium gradient inner box -->
  <rect x="40" y="40" width="432" height="432" rx="96" fill="url(#grad)" filter="url(#shadow)"/>

  <!-- High-quality modern shopping bag icon centered -->
  <path d="M184 216V160C184 120.3 216.3 88 256 88C295.7 88 328 120.3 328 160V216H392C409.7 216 424 230.3 424 248V400C424 426.5 402.5 448 376 448H136C109.5 448 88 426.5 88 400V248C88 230.3 102.3 216 120 216H184zM232 216H280V160C280 146.8 269.2 136 256 136C242.8 136 232 146.8 232 160V216z" fill="#ffffff" filter="url(#shadow)"/>
</svg>
